<svg id="svg" version="1.1" xmlns="http://www.w3.org/2000/svg" xmlns:xlink="http://www.w3.org/1999/xlink" width="400" height="349.84709480122325" viewBox="0, 0, 400,349.84709480122325"><g id="svgg"><path id="path0" d="M96.176 103.491 C 94.870 103.683,94.738 103.915,93.137 108.836 C 90.218 117.812,88.802 122.004,88.172 123.535 C 87.816 124.401,86.658 127.787,85.599 131.059 C 82.912 139.361,82.293 141.231,81.376 143.832 C 80.935 145.083,80.149 147.524,79.631 149.256 C 79.112 150.989,78.447 152.957,78.152 153.631 C 77.857 154.304,77.010 156.745,76.270 159.055 C 74.762 163.759,74.643 164.117,71.506 173.403 C 70.271 177.060,68.384 182.808,67.314 186.177 C 66.244 189.545,65.080 193.010,64.728 193.876 C 64.375 194.742,63.661 196.868,63.141 198.600 C 62.620 200.332,61.833 202.695,61.390 203.850 C 60.948 205.004,59.634 208.863,58.472 212.423 C 57.309 215.984,55.713 220.866,54.925 223.272 C 54.137 225.678,53.029 229.063,52.463 230.793 C 50.887 235.608,50.835 235.641,44.178 235.914 C 38.479 236.148,37.626 236.295,37.317 237.101 C 34.829 243.585,35.630 259.864,38.508 261.321 C 39.921 262.035,96.511 261.957,97.536 261.239 C 99.122 260.128,100.670 252.759,100.254 248.294 C 100.183 247.524,100.043 245.829,99.943 244.528 C 99.471 238.328,98.732 237.620,92.732 237.620 C 86.060 237.620,84.879 236.498,86.654 231.846 C 87.386 229.928,87.979 228.060,89.534 222.766 C 91.445 216.262,88.446 216.961,114.547 216.936 C 139.982 216.912,137.797 216.587,138.947 220.562 C 140.147 224.709,141.400 228.904,142.132 231.225 C 143.909 236.863,143.266 237.620,136.697 237.620 C 130.337 237.620,130.198 237.732,129.324 243.580 C 128.205 251.067,129.361 260.228,131.575 261.413 C 132.040 261.661,141.850 261.749,162.183 261.686 L 192.107 261.592 192.863 260.836 C 194.520 259.179,195.404 248.492,194.421 241.995 C 193.529 236.093,193.253 235.871,186.831 235.871 C 180.920 235.871,181.049 235.995,178.498 227.822 C 177.687 225.223,176.782 222.467,176.488 221.697 C 176.194 220.927,175.436 218.565,174.803 216.448 C 174.171 214.331,173.468 212.126,173.242 211.549 C 173.015 210.972,172.616 209.634,172.356 208.575 C 172.095 207.516,171.260 204.838,170.501 202.625 C 169.741 200.411,168.610 196.947,167.987 194.926 C 167.364 192.905,166.573 190.542,166.230 189.676 C 165.886 188.810,165.490 187.550,165.348 186.877 C 165.207 186.203,164.108 182.660,162.906 179.003 C 161.705 175.346,160.218 170.700,159.602 168.679 C 158.986 166.658,158.197 164.217,157.849 163.255 C 156.665 159.987,155.676 156.960,155.333 155.556 C 155.145 154.786,154.436 152.581,153.756 150.656 C 153.076 148.731,151.909 145.109,151.162 142.607 C 150.414 140.105,149.169 136.089,148.393 133.683 C 147.618 131.277,146.588 128.049,146.104 126.509 C 145.620 124.969,144.184 120.560,142.913 116.710 C 141.642 112.861,140.385 108.880,140.119 107.865 C 139.560 105.726,138.787 104.421,137.751 103.866 C 137.052 103.492,98.543 103.145,96.176 103.491 M359.922 103.959 C 352.542 105.538,347.359 113.149,348.541 120.673 C 351.448 139.192,378.653 137.271,378.653 118.546 C 378.653 109.036,369.503 101.910,359.922 103.959 M213.584 105.335 C 211.267 106.282,210.050 116.703,211.322 124.701 C 212.318 130.965,212.639 131.227,219.014 130.994 C 223.259 130.839,225.141 131.199,225.718 132.277 C 226.647 134.012,226.341 233.711,225.403 234.869 C 224.764 235.660,224.494 235.703,219.157 235.871 C 213.100 236.061,212.722 236.179,212.094 238.086 C 209.777 245.127,210.818 260.341,213.692 261.434 C 215.699 262.197,276.618 261.848,277.610 261.068 C 279.632 259.478,280.637 252.499,280.004 244.459 C 279.339 236.022,279.255 235.949,270.047 235.805 C 263.234 235.698,263.091 235.680,262.436 234.869 C 261.340 233.516,261.403 202.013,262.503 201.017 C 263.196 200.389,264.160 200.337,279.039 200.136 C 301.411 199.832,307.035 198.953,316.010 194.359 C 325.719 189.391,332.746 181.987,336.077 173.220 C 336.624 171.781,337.369 169.816,337.733 168.854 C 339.990 162.890,340.715 148.740,339.155 141.097 C 334.861 120.059,318.590 106.883,295.013 105.352 C 288.257 104.913,214.653 104.898,213.584 105.335 M368.329 107.733 C 375.201 110.951,377.887 120.337,373.326 125.192 C 370.711 127.975,366.365 122.271,368.485 118.840 C 371.648 113.723,369.485 110.516,362.605 110.120 C 357.582 109.830,356.782 108.836,360.183 107.109 C 362.331 106.017,365.122 106.231,368.329 107.733 M356.671 110.912 C 359.483 113.124,358.796 127.034,355.875 127.034 C 352.516 127.034,350.592 117.864,352.967 113.170 C 354.401 110.337,355.267 109.808,356.671 110.912 M365.586 112.873 C 367.359 114.019,366.788 116.942,364.703 117.400 C 363.233 117.722,361.237 116.808,360.954 115.684 C 360.239 112.832,362.964 111.178,365.586 112.873 M364.171 121.133 C 364.387 121.304,365.047 122.428,365.639 123.630 C 366.231 124.832,367.196 126.277,367.785 126.840 C 370.091 129.050,368.373 130.530,363.500 130.532 C 360.169 130.534,358.681 130.046,357.971 128.720 C 357.457 127.760,358.310 127.034,359.954 127.034 C 361.671 127.034,362.061 126.311,361.422 124.315 C 360.463 121.318,362.070 119.458,364.171 121.133 M290.179 132.721 C 299.616 135.858,303.428 142.124,302.966 153.743 C 302.501 165.426,297.224 171.667,286.636 173.054 C 279.626 173.972,263.805 173.799,262.666 172.791 L 261.776 172.003 261.736 152.896 C 261.692 132.060,261.645 132.568,263.692 131.940 C 266.296 131.141,287.288 131.760,290.179 132.721 M116.323 138.687 C 116.883 139.097,117.526 141.037,119.184 147.332 C 119.463 148.390,119.916 149.965,120.190 150.831 C 120.464 151.697,120.860 153.193,121.070 154.156 C 121.487 156.073,122.961 161.480,124.409 166.404 C 125.542 170.256,126.880 175.141,127.571 177.953 C 127.855 179.108,128.397 181.076,128.776 182.327 C 132.329 194.076,133.690 192.959,115.661 193.100 C 97.362 193.243,98.005 193.442,99.545 188.128 C 100.949 183.285,103.186 175.742,104.121 172.703 C 105.132 169.414,105.954 166.599,107.237 162.030 C 107.750 160.201,108.625 157.209,109.182 155.381 C 109.739 153.552,110.538 150.875,110.959 149.431 C 113.836 139.563,114.821 137.589,116.323 138.687 " stroke="none" fill="#f0f9fa" fill-rule="evenodd"></path><path id="path1" d="M0.000 173.403 L 0.000 346.807 200.000 346.807 L 400.000 346.807 400.000 173.403 L 400.000 0.000 200.000 0.000 L 0.000 0.000 0.000 173.403 M137.751 103.866 C 138.787 104.421,139.560 105.726,140.119 107.865 C 140.385 108.880,141.642 112.861,142.913 116.710 C 144.184 120.560,145.620 124.969,146.104 126.509 C 146.588 128.049,147.618 131.277,148.393 133.683 C 149.169 136.089,150.414 140.105,151.162 142.607 C 151.909 145.109,153.076 148.731,153.756 150.656 C 154.436 152.581,155.145 154.786,155.333 155.556 C 155.676 156.960,156.665 159.987,157.849 163.255 C 158.197 164.217,158.986 166.658,159.602 168.679 C 160.218 170.700,161.705 175.346,162.906 179.003 C 164.108 182.660,165.207 186.203,165.348 186.877 C 165.490 187.550,165.886 188.810,166.230 189.676 C 166.573 190.542,167.364 192.905,167.987 194.926 C 168.610 196.947,169.741 200.411,170.501 202.625 C 171.260 204.838,172.095 207.516,172.356 208.575 C 172.616 209.634,173.015 210.972,173.242 211.549 C 173.468 212.126,174.171 214.331,174.803 216.448 C 175.436 218.565,176.194 220.927,176.488 221.697 C 176.782 222.467,177.687 225.223,178.498 227.822 C 181.049 235.995,180.920 235.871,186.831 235.871 C 193.253 235.871,193.529 236.093,194.421 241.995 C 195.404 248.492,194.520 259.179,192.863 260.836 L 192.107 261.592 162.183 261.686 C 141.850 261.749,132.040 261.661,131.575 261.413 C 129.361 260.228,128.205 251.067,129.324 243.580 C 130.198 237.732,130.337 237.620,136.697 237.620 C 143.266 237.620,143.909 236.863,142.132 231.225 C 141.400 228.904,140.147 224.709,138.947 220.562 C 137.797 216.587,139.982 216.912,114.547 216.936 C 88.446 216.961,91.445 216.262,89.534 222.766 C 87.979 228.060,87.386 229.928,86.654 231.846 C 84.879 236.498,86.060 237.620,92.732 237.620 C 98.732 237.620,99.471 238.328,99.943 244.528 C 100.043 245.829,100.183 247.524,100.254 248.294 C 100.670 252.759,99.122 260.128,97.536 261.239 C 96.511 261.957,39.921 262.035,38.508 261.321 C 35.630 259.864,34.829 243.585,37.317 237.101 C 37.626 236.295,38.479 236.148,44.178 235.914 C 50.835 235.641,50.887 235.608,52.463 230.793 C 53.029 229.063,54.137 225.678,54.925 223.272 C 55.713 220.866,57.309 215.984,58.472 212.423 C 59.634 208.863,60.948 205.004,61.390 203.850 C 61.833 202.695,62.620 200.332,63.141 198.600 C 63.661 196.868,64.375 194.742,64.728 193.876 C 65.080 193.010,66.244 189.545,67.314 186.177 C 68.384 182.808,70.271 177.060,71.506 173.403 C 74.643 164.117,74.762 163.759,76.270 159.055 C 77.010 156.745,77.857 154.304,78.152 153.631 C 78.447 152.957,79.112 150.989,79.631 149.256 C 80.149 147.524,80.935 145.083,81.376 143.832 C 82.293 141.231,82.912 139.361,85.599 131.059 C 86.658 127.787,87.816 124.401,88.172 123.535 C 88.802 122.004,90.218 117.812,93.137 108.836 C 94.738 103.915,94.870 103.683,96.176 103.491 C 98.543 103.145,137.052 103.492,137.751 103.866 M369.486 104.874 C 383.398 111.027,380.983 131.242,366.076 133.415 C 351.490 135.540,342.477 118.843,352.493 108.252 C 356.570 103.941,364.025 102.459,369.486 104.874 M295.013 105.352 C 318.590 106.883,334.861 120.059,339.155 141.097 C 340.715 148.740,339.990 162.890,337.733 168.854 C 337.369 169.816,336.624 171.781,336.077 173.220 C 332.746 181.987,325.719 189.391,316.010 194.359 C 307.035 198.953,301.411 199.832,279.039 200.136 C 264.160 200.337,263.196 200.389,262.503 201.017 C 261.403 202.013,261.340 233.516,262.436 234.869 C 263.091 235.680,263.234 235.698,270.047 235.805 C 279.255 235.949,279.339 236.022,280.004 244.459 C 280.637 252.499,279.632 259.478,277.610 261.068 C 276.618 261.848,215.699 262.197,213.692 261.434 C 210.818 260.341,209.777 245.127,212.094 238.086 C 212.722 236.179,213.100 236.061,219.157 235.871 C 224.494 235.703,224.764 235.660,225.403 234.869 C 226.341 233.711,226.647 134.012,225.718 132.277 C 225.141 131.199,223.259 130.839,219.014 130.994 C 212.639 131.227,212.318 130.965,211.322 124.701 C 210.050 116.703,211.267 106.282,213.584 105.335 C 214.653 104.898,288.257 104.913,295.013 105.352 M360.183 107.109 C 356.782 108.836,357.582 109.830,362.605 110.120 C 369.485 110.516,371.648 113.723,368.485 118.840 C 366.365 122.271,370.711 127.975,373.326 125.192 C 380.348 117.717,369.280 102.488,360.183 107.109 M354.657 110.730 C 350.477 113.657,351.477 127.034,355.875 127.034 C 358.796 127.034,359.483 113.124,356.671 110.912 C 355.644 110.104,355.560 110.097,354.657 110.730 M362.122 112.526 C 360.225 113.571,360.405 116.258,362.428 117.103 C 364.874 118.125,367.079 116.709,366.580 114.438 C 366.179 112.614,363.807 111.597,362.122 112.526 M356.255 115.121 C 356.255 116.545,355.644 118.635,355.228 118.635 C 354.263 118.635,353.868 115.353,354.690 114.178 C 355.470 113.065,356.255 113.538,356.255 115.121 M364.618 114.406 C 365.284 114.827,364.838 115.836,363.986 115.836 C 363.083 115.836,362.736 115.236,363.267 114.595 C 363.755 114.007,363.946 113.980,364.618 114.406 M371.589 120.849 C 371.669 121.519,371.541 121.785,371.141 121.785 C 370.478 121.785,370.093 120.960,370.391 120.181 C 370.708 119.357,371.462 119.778,371.589 120.849 M355.916 121.260 C 356.052 122.612,355.901 123.185,355.408 123.185 C 354.722 123.185,354.327 121.197,354.880 120.531 C 355.378 119.931,355.812 120.237,355.916 121.260 M361.964 120.663 C 361.085 121.216,360.877 122.613,361.422 124.315 C 362.061 126.311,361.671 127.034,359.954 127.034 C 358.310 127.034,357.457 127.760,357.971 128.720 C 358.681 130.046,360.169 130.534,363.500 130.532 C 368.373 130.530,370.091 129.050,367.785 126.840 C 367.196 126.277,366.231 124.832,365.639 123.630 C 365.047 122.428,364.387 121.304,364.171 121.133 C 363.529 120.621,362.409 120.383,361.964 120.663 M263.692 131.940 C 261.645 132.568,261.692 132.060,261.736 152.896 L 261.776 172.003 262.666 172.791 C 263.805 173.799,279.626 173.972,286.636 173.054 C 297.224 171.667,302.501 165.426,302.966 153.743 C 303.428 142.124,299.616 135.858,290.179 132.721 C 287.288 131.760,266.296 131.141,263.692 131.940 M114.865 138.526 C 114.424 138.806,112.447 144.328,110.959 149.431 C 110.538 150.875,109.739 153.552,109.182 155.381 C 108.625 157.209,107.750 160.201,107.237 162.030 C 105.954 166.599,105.132 169.414,104.121 172.703 C 103.186 175.742,100.949 183.285,99.545 188.128 C 98.005 193.442,97.362 193.243,115.661 193.100 C 129.892 192.989,130.375 192.938,130.923 191.496 C 131.261 190.609,131.193 190.322,128.776 182.327 C 128.397 181.076,127.855 179.108,127.571 177.953 C 126.880 175.141,125.542 170.256,124.409 166.404 C 122.961 161.480,121.487 156.073,121.070 154.156 C 120.860 153.193,120.464 151.697,120.190 150.831 C 119.916 149.965,119.463 148.390,119.184 147.332 C 116.888 138.616,116.374 137.569,114.865 138.526 M115.830 143.220 C 115.818 144.219,115.146 144.730,115.141 143.745 C 115.138 143.215,115.293 142.782,115.486 142.782 C 115.678 142.782,115.833 142.979,115.830 143.220 M128.421 189.836 C 129.007 190.542,128.577 191.076,127.422 191.076 C 126.123 191.076,125.863 190.740,126.563 189.967 C 127.262 189.194,127.854 189.152,128.421 189.836 M103.009 190.317 C 103.712 191.094,103.448 191.426,102.129 191.426 C 101.401 191.426,101.137 191.256,101.137 190.784 C 101.137 189.533,102.085 189.296,103.009 190.317 " stroke="none" fill="#059bdb" fill-rule="evenodd"></path><path id="path2" d="M354.690 114.178 C 354.054 115.087,354.002 116.515,354.562 117.744 C 355.097 118.918,355.406 118.868,355.871 117.533 C 356.802 114.864,355.935 112.402,354.690 114.178 M363.267 114.595 C 362.736 115.236,363.083 115.836,363.986 115.836 C 364.838 115.836,365.284 114.827,364.618 114.406 C 363.946 113.980,363.755 114.007,363.267 114.595 M370.391 120.181 C 370.093 120.960,370.478 121.785,371.141 121.785 C 371.541 121.785,371.669 121.519,371.589 120.849 C 371.462 119.778,370.708 119.357,370.391 120.181 M354.880 120.531 C 354.327 121.197,354.722 123.185,355.408 123.185 C 355.901 123.185,356.052 122.612,355.916 121.260 C 355.812 120.237,355.378 119.931,354.880 120.531 M115.141 143.745 C 115.145 144.494,115.221 144.591,115.486 144.182 C 115.928 143.497,115.928 142.782,115.486 142.782 C 115.293 142.782,115.138 143.215,115.141 143.745 M126.563 189.967 C 125.863 190.740,126.123 191.076,127.422 191.076 C 128.577 191.076,129.007 190.542,128.421 189.836 C 127.854 189.152,127.262 189.194,126.563 189.967 M101.371 189.910 C 100.732 190.548,101.171 191.426,102.129 191.426 C 103.448 191.426,103.712 191.094,103.009 190.317 C 102.412 189.657,101.780 189.500,101.371 189.910 M0.000 347.857 L 0.000 348.906 200.000 348.906 L 400.000 348.906 400.000 347.857 L 400.000 346.807 200.000 346.807 L 0.000 346.807 0.000 347.857 " stroke="none" fill="#1c648c" fill-rule="evenodd"></path><path id="path3" d="M0.000 349.431 C 0.000 349.897,22.456 349.956,200.000 349.956 C 377.544 349.956,400.000 349.897,400.000 349.431 C 400.000 348.965,377.544 348.906,200.000 348.906 C 22.456 348.906,0.000 348.965,0.000 349.431 " stroke="none" fill="#04243c" fill-rule="evenodd"></path></g></svg>