<?xml version="1.0" standalone="no"?>
<!DOCTYPE svg PUBLIC "-//W3C//DTD SVG 20010904//EN"
 "http://www.w3.org/TR/2001/REC-SVG-20010904/DTD/svg10.dtd">
<svg version="1.0" xmlns="http://www.w3.org/2000/svg"
 width="393.000000pt" height="128.000000pt" viewBox="0 0 393.000000 128.000000"
 preserveAspectRatio="xMidYMid meet">

<g transform="translate(0.000000,128.000000) scale(0.100000,-0.100000)"
fill="#000000" stroke="none">
<path d="M0 640 l0 -640 1965 0 1965 0 0 640 0 640 -1965 0 -1965 0 0 -640z
m657 245 c-7 -44 -6 -45 22 -45 66 0 151 -52 151 -93 0 -11 -9 -36 -20 -56
-10 -20 -24 -54 -30 -77 -5 -22 -23 -60 -39 -84 -27 -41 -104 -110 -123 -110
-5 0 -37 28 -72 63 -46 44 -68 76 -81 112 -9 28 -25 69 -36 93 -25 55 -24 64
7 101 19 23 39 33 85 43 40 8 59 17 59 27 0 19 50 71 68 71 12 0 13 -10 9 -45z
m431 -131 c12 -8 22 -10 22 -5 0 6 14 11 30 11 29 0 30 -1 30 -50 0 -49 -1
-50 -30 -50 -18 0 -30 5 -30 13 0 23 -39 50 -72 50 -73 0 -105 -126 -48 -183
36 -36 120 -17 120 27 0 8 12 13 30 13 36 0 40 -24 10 -63 -40 -51 -139 -59
-195 -15 -55 43 -72 130 -37 198 30 60 120 89 170 54z m402 -109 c0 -104 2
-125 15 -125 8 0 15 -9 15 -20 0 -19 -5 -21 -57 -18 -46 2 -59 7 -61 21 -2 10
3 17 12 17 23 0 24 205 1 214 -8 3 -15 12 -15 21 0 11 11 15 45 15 l45 0 0
-125z m140 0 c0 -77 4 -125 10 -125 6 0 10 -9 10 -20 0 -18 -7 -20 -55 -20
-48 0 -55 2 -55 20 0 11 7 20 15 20 12 0 15 18 15 105 0 87 -3 105 -15 105 -8
0 -15 9 -15 20 0 17 7 20 45 20 l45 0 0 -125z m1850 0 c0 -104 2 -125 15 -125
8 0 15 -9 15 -20 0 -17 -7 -20 -40 -20 -30 0 -40 4 -40 16 0 13 -5 12 -26 -5
-37 -29 -70 -26 -105 8 -25 26 -29 37 -29 86 0 46 4 60 25 80 26 27 72 33 106
15 17 -10 19 -7 19 20 0 20 -5 30 -15 30 -8 0 -15 9 -15 20 0 17 7 20 45 20
l45 0 0 -125z m-894 89 c20 -19 24 -31 19 -52 -3 -15 -13 -32 -21 -39 -14 -10
-13 -14 5 -32 31 -31 28 -84 -5 -110 -23 -18 -41 -21 -130 -21 -97 0 -104 1
-104 20 0 13 7 20 20 20 19 0 20 7 20 100 0 93 -1 100 -20 100 -13 0 -20 7
-20 20 0 19 7 20 105 20 100 0 107 -1 131 -26z m-1209 -79 c33 -37 32 -112 -1
-148 -47 -51 -148 -40 -175 19 -26 59 -6 134 43 155 39 17 108 4 133 -26z
m442 21 c28 -15 51 -53 51 -86 0 -18 -7 -20 -75 -20 -41 0 -75 -3 -75 -6 0 -3
5 -14 10 -25 13 -23 68 -26 76 -4 9 23 54 19 54 -5 0 -28 -47 -55 -97 -55 -53
0 -91 34 -100 88 -15 93 71 156 156 113z m209 -2 c17 -12 22 -12 20 -2 -5 21
71 24 79 2 4 -10 0 -22 -10 -29 -14 -10 -17 -30 -17 -98 0 -76 -3 -89 -24
-114 -22 -25 -31 -28 -86 -28 -49 0 -64 4 -76 19 -8 11 -14 26 -14 33 0 18 55
17 70 -2 24 -29 70 -11 70 27 0 15 -3 17 -19 8 -35 -18 -71 -11 -102 19 -24
24 -29 38 -29 76 0 38 5 52 29 76 33 33 74 38 109 13z m283 -13 c16 -16 29
-36 29 -44 0 -9 3 -22 6 -31 5 -14 -5 -16 -71 -16 -74 0 -76 -1 -73 -22 4 -29
58 -38 78 -14 15 19 60 21 60 3 0 -19 -41 -54 -72 -62 -35 -9 -94 11 -113 38
-20 28 -19 106 1 135 35 50 111 56 155 13z m478 14 c52 -27 66 -120 25 -166
-27 -29 -78 -42 -118 -29 -52 17 -71 44 -71 102 0 43 4 53 33 79 37 33 85 38
131 14z m239 -9 c11 -11 15 -33 14 -81 -2 -52 1 -65 13 -65 8 0 15 -9 15 -20
0 -17 -7 -20 -40 -20 -24 0 -40 5 -40 12 0 6 -7 4 -18 -5 -41 -38 -122 -5
-122 48 0 38 33 63 90 71 52 7 58 12 38 32 -17 17 -47 15 -54 -3 -8 -19 -64
-20 -64 -2 0 15 26 41 50 50 26 11 101 0 118 -17z m150 8 c8 -14 10 -14 21 0
8 9 24 16 37 16 19 0 24 -5 24 -25 0 -20 -5 -25 -24 -25 -32 0 -56 -35 -56
-82 0 -32 3 -38 21 -38 14 0 19 -5 17 -17 -3 -15 -16 -19 -66 -21 -57 -3 -62
-1 -62 18 0 11 7 20 15 20 12 0 15 14 15 66 0 38 -4 63 -9 59 -13 -7 -24 13
-17 30 7 21 72 20 84 -1z"/>
<path d="M620 880 c-6 -12 -9 -24 -7 -27 3 -2 11 5 17 17 6 12 9 24 7 27 -3 2
-11 -5 -17 -17z"/>
<path d="M531 808 c-43 -16 -60 -41 -45 -65 9 -15 30 -19 112 -23 108 -5 152
-20 60 -20 -81 0 -115 -15 -129 -57 -8 -26 -8 -45 1 -78 14 -51 64 -115 89
-115 47 0 131 121 131 187 0 24 7 58 16 75 22 43 7 74 -43 87 -64 18 -155 22
-192 9z"/>
<path d="M3342 638 c-16 -16 -16 -90 0 -106 15 -15 51 -15 66 0 15 15 16 72 2
99 -12 21 -50 25 -68 7z"/>
<path d="M2450 684 l0 -35 43 3 c36 3 43 7 45 27 4 29 -12 41 -55 41 -31 0
-33 -2 -33 -36z"/>
<path d="M2450 561 c0 -40 1 -41 33 -41 44 0 70 20 65 51 -3 21 -9 24 -50 27
l-48 3 0 -40z"/>
<path d="M1266 634 c-19 -18 -21 -85 -4 -102 15 -15 51 -15 66 0 30 30 5 118
-33 118 -7 0 -21 -7 -29 -16z"/>
<path d="M1730 631 c-15 -29 -13 -31 28 -31 46 0 55 6 41 31 -13 25 -55 24
-69 0z"/>
<path d="M1962 628 c-17 -17 -15 -73 2 -87 8 -7 27 -11 43 -9 22 2 29 9 31 32
6 52 -5 76 -36 76 -15 0 -33 -5 -40 -12z"/>
<path d="M2212 638 c-24 -24 -13 -38 28 -38 26 0 40 5 40 13 0 18 -21 37 -40
37 -9 0 -21 -5 -28 -12z"/>
<path d="M2700 630 c-22 -22 -25 -46 -10 -84 7 -20 17 -26 39 -26 48 0 68 61
35 108 -19 27 -38 28 -64 2z"/>
<path d="M2917 563 c-13 -12 -7 -41 9 -47 21 -8 64 19 64 39 0 15 -60 22 -73
8z"/>
</g>
</svg>
